<?xml version="1.0" encoding="UTF-8"?>
<svg width="41px" height="41px" viewBox="0 0 41 41" version="1.1" xmlns="http://www.w3.org/2000/svg" xmlns:xlink="http://www.w3.org/1999/xlink">
    <!-- Generator: Sketch 51.3 (57544) - http://www.bohemiancoding.com/sketch -->
    <title>concentric-circles</title>
    <desc>Created with Sketch.</desc>
    <defs></defs>
    <g id="Page-1" stroke="none" stroke-width="1" fill="none" fill-rule="evenodd">
        <g id="Artboard" transform="translate(-680.000000, -4073.000000)" fill="#FFD100" fill-rule="nonzero">
            <g id="concentric-circles" transform="translate(680.000000, 4073.000000)">
                <path d="M20.3541505,0 C9.1306421,0 0,9.1306421 0,20.3541505 C0,31.5776588 9.1306421,40.7095833 20.3541505,40.7095833 C31.5776588,40.7095833 40.7083009,31.5789412 40.7083009,20.3541505 C40.7083009,9.1306421 31.5776588,0 20.3541505,0 Z M20.4724153,39.8073954 C9.81281011,39.8073954 1.13888889,31.1320205 1.13888889,20.4724153 C1.13888889,9.81281011 9.81135646,1.13888889 20.4724153,1.13888889 C31.1334742,1.13888889 39.8059418,9.81135646 39.8059418,20.4724153 C39.8044881,31.1320205 31.1320205,39.8073954 20.4724153,39.8073954 Z" id="Shape"></path>
                <path d="M20.8139678,5.69444444 C12.476803,5.69444444 5.69444444,12.476803 5.69444444,20.8139678 C5.69444444,29.1511327 12.476803,35.9334913 20.8139678,35.9334913 C29.1511327,35.9334913 35.9319442,29.1495856 35.9319442,20.8139678 C35.9334913,12.4783501 29.1495856,5.69444444 20.8139678,5.69444444 Z M20.8141652,34.7949971 C13.1044189,34.7949971 6.83333333,28.525853 6.83333333,20.8141652 C6.83333333,13.1044189 13.1063604,6.83333333 20.8141652,6.83333333 C28.52197,6.83333333 34.7930556,13.1044189 34.7930556,20.8141652 C34.7930556,28.525853 28.52197,34.7949971 20.8141652,34.7949971 Z" id="Shape"></path>
                <circle id="Oval" cx="20.8223056" cy="20.8223056" r="8.29452778"></circle>
            </g>
        </g>
    </g>
</svg>